<svg width="32" height="32" viewBox="0 0 32 32" fill="none" xmlns="http://www.w3.org/2000/svg">
<g clip-path="url(#clip0_621_1230)">
<path d="M16 2.66666C19.6227 2.66666 20.0747 2.68 21.496 2.74666C22.916 2.81333 23.8827 3.036 24.7334 3.36666C25.6134 3.70533 26.3547 4.164 27.096 4.904C27.774 5.57053 28.2986 6.37678 28.6334 7.26666C28.9627 8.116 29.1867 9.084 29.2534 10.504C29.316 11.9253 29.3334 12.3773 29.3334 16C29.3334 19.6227 29.32 20.0747 29.2534 21.496C29.1867 22.916 28.9627 23.8827 28.6334 24.7333C28.2996 25.6237 27.7748 26.4302 27.096 27.096C26.4293 27.7738 25.6231 28.2983 24.7334 28.6333C23.884 28.9627 22.916 29.1867 21.496 29.2533C20.0747 29.316 19.6227 29.3333 16 29.3333C12.3774 29.3333 11.9254 29.32 10.504 29.2533C9.08402 29.1867 8.11735 28.9627 7.26669 28.6333C6.37646 28.2993 5.57006 27.7746 4.90402 27.096C4.2259 26.4296 3.70126 25.6233 3.36669 24.7333C3.03602 23.884 2.81335 22.916 2.74669 21.496C2.68402 20.0747 2.66669 19.6227 2.66669 16C2.66669 12.3773 2.68002 11.9253 2.74669 10.504C2.81335 9.08266 3.03602 8.11733 3.36669 7.26666C3.70034 6.37624 4.22509 5.56976 4.90402 4.904C5.57025 4.22564 6.37659 3.70097 7.26669 3.36666C8.11735 3.036 9.08269 2.81333 10.504 2.74666C11.9254 2.684 12.3774 2.66666 16 2.66666ZM16 9.33333C14.2319 9.33333 12.5362 10.0357 11.286 11.286C10.0357 12.5362 9.33335 14.2319 9.33335 16C9.33335 17.7681 10.0357 19.4638 11.286 20.714C12.5362 21.9643 14.2319 22.6667 16 22.6667C17.7681 22.6667 19.4638 21.9643 20.7141 20.714C21.9643 19.4638 22.6667 17.7681 22.6667 16C22.6667 14.2319 21.9643 12.5362 20.7141 11.286C19.4638 10.0357 17.7681 9.33333 16 9.33333ZM24.6667 9C24.6667 8.55797 24.4911 8.13405 24.1785 7.82149C23.866 7.50893 23.442 7.33333 23 7.33333C22.558 7.33333 22.1341 7.50893 21.8215 7.82149C21.5089 8.13405 21.3334 8.55797 21.3334 9C21.3334 9.44203 21.5089 9.86595 21.8215 10.1785C22.1341 10.4911 22.558 10.6667 23 10.6667C23.442 10.6667 23.866 10.4911 24.1785 10.1785C24.4911 9.86595 24.6667 9.44203 24.6667 9ZM16 12C17.0609 12 18.0783 12.4214 18.8284 13.1716C19.5786 13.9217 20 14.9391 20 16C20 17.0609 19.5786 18.0783 18.8284 18.8284C18.0783 19.5786 17.0609 20 16 20C14.9392 20 13.9217 19.5786 13.1716 18.8284C12.4214 18.0783 12 17.0609 12 16C12 14.9391 12.4214 13.9217 13.1716 13.1716C13.9217 12.4214 14.9392 12 16 12Z" fill="#7848F4"/>
</g>
<defs>
<clipPath id="clip0_621_1230">
<rect width="32" height="32" fill="white"/>
</clipPath>
</defs>
</svg>
