<svg width="32" height="32" viewBox="0 0 32 32" fill="none" xmlns="http://www.w3.org/2000/svg">
<g clip-path="url(#clip0_621_1242)">
<path d="M9.25335 6.66667C9.25299 7.37391 8.9717 8.05205 8.47136 8.55189C7.97101 9.05174 7.29259 9.33235 6.58535 9.332C5.8781 9.33165 5.19997 9.05035 4.70012 8.55001C4.20027 8.04966 3.91966 7.37124 3.92001 6.664C3.92037 5.95675 4.20166 5.27862 4.70201 4.77877C5.20235 4.27892 5.88077 3.99831 6.58801 3.99867C7.29526 3.99902 7.97339 4.28031 8.47324 4.78066C8.97309 5.281 9.2537 5.95942 9.25335 6.66667ZM9.33335 11.3067H4.00001V28H9.33335V11.3067ZM17.76 11.3067H12.4533V28H17.7067V19.24C17.7067 14.36 24.0667 13.9067 24.0667 19.24V28H29.3333V17.4267C29.3333 9.2 19.92 9.50667 17.7067 13.5467L17.76 11.3067Z" fill="#7848F4"/>
</g>
<defs>
<clipPath id="clip0_621_1242">
<rect width="32" height="32" fill="white"/>
</clipPath>
</defs>
</svg>
