<svg width="32" height="32" viewBox="0 0 32 32" fill="none" xmlns="http://www.w3.org/2000/svg">
<g clip-path="url(#clip0_621_1248)">
<path d="M29.5493 7.54133C28.5314 7.99159 27.452 8.2873 26.3467 8.41867C27.5117 7.72191 28.3836 6.62535 28.8 5.33333C27.7067 5.984 26.508 6.44 25.2587 6.68667C24.4195 5.78877 23.3072 5.19329 22.0946 4.99278C20.8821 4.79228 19.6373 4.99799 18.5537 5.57794C17.4701 6.15789 16.6085 7.07958 16.1028 8.19972C15.5971 9.31987 15.4757 10.5757 15.7573 11.772C13.5402 11.6609 11.3711 11.0847 9.39106 10.0809C7.411 9.07707 5.66418 7.66807 4.26401 5.94533C3.7684 6.7966 3.50795 7.7643 3.50934 8.74933C3.50934 10.6827 4.49334 12.3907 5.98934 13.3907C5.10402 13.3628 4.23819 13.1237 3.46401 12.6933V12.7627C3.46428 14.0503 3.90983 15.2982 4.72514 16.2947C5.54044 17.2913 6.67532 17.9753 7.93734 18.2307C7.1155 18.4534 6.25375 18.4862 5.41734 18.3267C5.77317 19.435 6.46669 20.4043 7.4008 21.0988C8.33491 21.7934 9.46285 22.1784 10.6267 22.2C9.46998 23.1084 8.14558 23.78 6.72918 24.1762C5.31279 24.5725 3.83218 24.6857 2.37201 24.5093C4.92094 26.1486 7.88814 27.0188 10.9187 27.016C21.176 27.016 26.7853 18.5187 26.7853 11.1493C26.7853 10.9093 26.7787 10.6667 26.768 10.4293C27.8598 9.64022 28.8021 8.66269 29.5507 7.54267L29.5493 7.54133Z" fill="#7848F4"/>
</g>
<defs>
<clipPath id="clip0_621_1248">
<rect width="32" height="32" fill="white"/>
</clipPath>
</defs>
</svg>
