<svg width="32" height="32" viewBox="0 0 32 32" fill="none" xmlns="http://www.w3.org/2000/svg">
<g clip-path="url(#clip0_621_1254)">
<path d="M28.724 8.664C29.3333 11.04 29.3333 16 29.3333 16C29.3333 16 29.3333 20.96 28.724 23.336C28.3853 24.6493 27.3947 25.6827 26.14 26.032C23.8613 26.6667 16 26.6667 16 26.6667C16 26.6667 8.14266 26.6667 5.85999 26.032C4.59999 25.6773 3.61066 24.6453 3.27599 23.336C2.66666 20.96 2.66666 16 2.66666 16C2.66666 16 2.66666 11.04 3.27599 8.664C3.61466 7.35067 4.60532 6.31734 5.85999 5.968C8.14266 5.33334 16 5.33334 16 5.33334C16 5.33334 23.8613 5.33334 26.14 5.968C27.4 6.32267 28.3893 7.35467 28.724 8.664ZM13.3333 20.6667L21.3333 16L13.3333 11.3333V20.6667Z" fill="#7848F4"/>
</g>
<defs>
<clipPath id="clip0_621_1254">
<rect width="32" height="32" fill="white"/>
</clipPath>
</defs>
</svg>
